HIERARCHY
ROOT Hips
{
     OFFSET 1.88212 96.90440 -13.34250
     CHANNELS 6 Xposition Yposition Zposition Zrotation Xrotation Yrotation
     JOINT Spine
     {
          OFFSET 0.00000 11.89050 0.00000
          CHANNELS 3 Zrotation Xrotation Yrotation
          JOINT Spine1
          {
               OFFSET -0.00000 25.65740 0.12766
               CHANNELS 3 Zrotation Xrotation Yrotation
               JOINT HEad
               {
                    OFFSET 0.00000 8.73416 0.01134
                    CHANNELS 3 Zrotation Xrotation Yrotation
                    End Site
                    {
                         OFFSET -0.29000 12.77420 2.51395
                    }
               }
               JOINT LeftShoulder1
               {
                    OFFSET 8.99000 -0.36225 -0.22000
                    CHANNELS 3 Zrotation Xrotation Yrotation
                    JOINT LeftArm
                    {
                         OFFSET 10.28270 -0.00338 0.32212
                         CHANNELS 3 Zrotation Xrotation Yrotation
                         JOINT LeftForeArm
                         {
                              OFFSET 32.76690 0.09914 -1.42434
                              CHANNELS 3 Zrotation Xrotation Yrotation
                              JOINT LeftHand
                              {
                                   OFFSET 27.56430 0.08536 1.02216
                                   CHANNELS 3 Zrotation Xrotation Yrotation
                                   End Site
                                   {
                                        OFFSET 16.74430 -0.60000 1.50291
                                   }
                              }
                         }
                    }
               }
               JOINT RightShoulder
               {
                    OFFSET -8.99000 -0.36225 -0.22000
                    CHANNELS 3 Zrotation Xrotation Yrotation
                    JOINT RightArm
                    {
                         OFFSET -10.28270 -0.00338 0.32212
                         CHANNELS 3 Zrotation Xrotation Yrotation
                         JOINT RightForeArm
                         {
                              OFFSET -32.89710 0.09914 -1.42434
                              CHANNELS 3 Zrotation Xrotation Yrotation
                              JOINT RightHand
                              {
                                   OFFSET -27.49210 0.08536 1.02216
                                   CHANNELS 3 Zrotation Xrotation Yrotation
                                   End Site
                                   {
                                        OFFSET -16.63120 -0.60000 1.50291
                                   }
                              }
                         }
                    }
               }
          }
     }
     JOINT LeftUpLeg
     {
          OFFSET 8.94580 -8.66707 0.10165
          CHANNELS 3 Zrotation Xrotation Yrotation
          JOINT LeftLeg
          {
               OFFSET 0.00000 -44.42270 1.37270
               CHANNELS 3 Zrotation Xrotation Yrotation
               JOINT LeftFoot
               {
                    OFFSET -0.25355 -42.09240 -1.46059
                    CHANNELS 3 Zrotation Xrotation Yrotation
                    JOINT LeftToes
                    {
                         OFFSET -0.04000 -4.41509 8.49910
                         CHANNELS 3 Zrotation Xrotation Yrotation
                         End Site
                         {
                              OFFSET 0.08000 -0.04745 9.77979
                         }
                    }
               }
          }
     }
     JOINT RightUpLeg
     {
          OFFSET -8.94580 -8.66707 0.10165
          CHANNELS 3 Zrotation Xrotation Yrotation
          JOINT RightLeg
          {
               OFFSET 0.00000 -44.42270 1.37270
               CHANNELS 3 Zrotation Xrotation Yrotation
               JOINT RightFoot
               {
                    OFFSET 0.25355 -42.09240 -1.46059
                    CHANNELS 3 Zrotation Xrotation Yrotation
                    JOINT RightToes
                    {
                         OFFSET 0.04000 -4.41509 8.49910
                         CHANNELS 3 Zrotation Xrotation Yrotation
                         End Site
                         {
                              OFFSET -0.08000 -0.13745 9.77979
                         }
                    }
               }
          }
     }
}
MOTION
Frames: 18
Frame Time: 0.01667
91.87791 76.05113 -105.75592 -12.18497 -1.02124 -33.39642 8.74533 13.33588 4.06552 -0.01157 0.03083 0.02972 0.39810 11.05514 5.59734 -8.93958 14.14882 6.54690 -107.96435 -59.01764 -86.59183 -43.57244 59.01245 -100.72266 9.57533 10.29289 2.62262 8.05927 21.30412 16.20590 72.40675 -27.58580 76.76637 31.27467 51.56639 108.25899 -9.14945 15.60014 1.26129 11.41211 -36.87291 26.87411 366.94720 63.70567 -355.28616 -1.83332 -1.12301 0.50809 -9.88322 -8.19643 -24.20654 -25.18341 -13.57915 -11.22987 -360.64813 52.63132 379.87845 33.65615 0.10175 0.08691 -3.56110 2.83691 -14.47520 
94.62486 80.00983 -104.36402 -12.42179 -0.61282 -36.06847 9.78562 12.77135 4.23028 -0.01108 0.02749 0.02606 -1.66125 15.18320 5.67405 -10.75656 14.35031 8.46788 -105.87838 -58.91942 -84.54617 -42.19620 59.37251 -102.46279 9.76736 10.69029 3.93078 6.84449 21.69847 17.31951 71.46494 -27.98128 75.01477 31.21363 51.01176 108.99583 -8.84460 13.13265 -0.21554 8.66470 -32.55165 24.30816 370.71396 55.34957 -363.06607 5.68043 0.47126 -0.21685 -17.99229 -16.16903 -12.12312 -20.33079 -11.81714 -14.65857 -363.88101 60.31112 385.19473 35.55352 0.07414 0.15219 1.84063 9.54924 -14.78952 
97.06146 83.65010 -103.27362 -12.29043 -0.37610 -38.41201 10.24756 12.42456 4.49303 -0.00938 0.02525 0.02327 -3.56345 18.54427 5.82235 -12.26720 14.32149 9.88384 -104.04070 -58.76640 -82.79644 -40.75388 59.66336 -104.03564 9.54824 10.20352 2.40634 5.89082 21.81094 18.05171 70.48247 -28.27754 73.13657 30.99435 50.52341 110.00029 -8.14076 13.81514 0.77958 6.03153 -28.77776 20.99459 372.09967 47.58465 -368.60062 12.83967 0.54383 -0.33962 -18.36544 -3.06713 -17.49070 -14.98913 -9.48309 -17.40344 -365.45898 66.58314 387.64664 22.69263 -0.30600 -0.78584 18.73317 7.49973 -7.67105 
99.17570 86.85316 -102.58425 -9.92609 -0.75503 -40.98147 7.38868 12.43035 5.84599 -0.06777 0.11026 0.03032 -4.32422 20.02048 5.76785 -12.50391 12.93930 10.46326 -102.35109 -58.57820 -81.18919 -39.36699 59.86517 -105.38480 9.63866 10.37985 3.01310 6.17319 20.46278 18.37630 69.38391 -28.42698 71.12933 30.61366 50.14610 111.15997 -7.91422 12.30633 -0.01741 1.92839 -26.48893 17.49696 372.76349 40.34533 -372.63904 19.63200 0.47192 -0.39593 -31.03476 -5.26934 -5.23134 -11.25673 -7.29918 -18.96768 -366.70724 69.07928 387.76715 33.57519 0.05989 0.46233 -6.12878 -0.03873 -7.94246 
101.11266 89.50983 -102.29866 -5.86567 -1.42249 -44.01992 2.90079 11.28265 7.97891 -0.00138 0.01379 0.01437 -5.06248 21.23849 5.84441 -12.45132 11.77805 10.44696 -101.04643 -58.63786 -79.85588 -38.08871 59.94471 -106.46752 9.40660 9.95208 1.77753 6.70942 19.21109 18.26421 68.19658 -28.27613 69.12177 30.08099 49.86020 112.33290 -7.39235 12.91513 0.58778 -3.14265 -25.76971 13.79140 373.65839 33.70375 -375.23367 25.76205 0.35759 -0.39251 -22.70613 -0.19034 -6.99300 -8.93178 -5.21398 -19.16495 -366.72333 67.84335 385.72775 17.67552 -0.28978 -0.38601 -0.31847 -18.15877 2.65572 
102.75328 91.56114 -102.35919 -2.42181 -2.07913 -46.67847 -1.01986 10.11022 9.73423 0.00141 0.00536 0.01007 -5.55841 21.99020 6.02890 -11.92809 10.58988 10.03721 -100.01906 -58.81432 -78.75944 -37.11883 59.84130 -107.13364 9.32587 10.08405 1.92369 7.60497 17.84833 17.97258 67.04153 -27.90196 67.28197 29.37582 49.58973 113.39787 -7.33151 12.07952 0.43402 -7.52809 -25.25863 8.93195 374.91986 28.09665 -376.50143 31.22672 0.26212 -0.34632 -40.53893 0.46617 5.10764 -6.71898 -1.94165 -18.65118 -364.64423 61.73127 381.20609 15.55438 -0.13893 -0.01442 -5.74913 -30.10208 -0.45999 
104.16721 93.04840 -102.65660 0.41382 -2.64190 -49.01556 -4.37445 8.97133 11.15221 0.00106 0.00309 0.00751 -5.88644 22.38374 6.34584 -11.02071 9.52197 9.48362 -99.32767 -59.01258 -78.01517 -36.59993 59.50814 -107.33841 9.03782 9.89121 1.00425 8.60126 16.52408 17.52404 66.19735 -27.28037 65.82680 28.58157 49.35627 114.31071 -7.05454 12.30557 1.00799 -10.98950 -24.81415 3.23532 376.47736 23.83556 -376.77390 36.05750 0.20057 -0.28828 -37.28274 2.31136 -6.81896 -5.08023 2.18457 -17.45141 -362.93735 52.59991 376.58942 6.87748 -0.21527 0.18799 -6.50363 -39.84063 -4.02783 
105.64908 93.80440 -103.09444 2.65288 -3.05379 -51.16045 -7.15761 7.95096 12.31084 -0.00062 0.00766 0.00615 -6.07752 22.41624 6.82103 -9.74187 8.71370 8.55361 -99.39524 -59.47168 -78.03305 -36.60240 59.02134 -107.06594 8.68359 9.69236 0.79570 13.80973 10.88053 5.68575 62.68010 -14.82961 65.04858 27.83140 48.99998 114.51817 -7.25787 12.06138 1.16210 -13.51255 -24.47756 -3.09097 377.98898 21.04818 -376.59415 40.56897 0.18288 -0.26218 -51.60753 4.83961 3.99725 -4.07666 5.95820 -16.42103 -362.77963 42.41799 374.09866 2.06705 -0.17908 0.18770 10.85540 -33.22888 -12.19714 
107.04423 94.13419 -103.59221 4.60400 -3.40965 -53.28035 -9.66384 6.90542 13.26174 -0.00105 0.00453 0.00390 -6.25541 22.35983 7.46601 -6.68686 8.60458 4.61909 -103.00325 -62.90025 -80.07841 -36.90538 58.49649 -106.83222 8.32977 9.45196 0.51820 17.06013 6.38933 -1.67603 60.40799 -6.36037 64.91342 27.20325 48.56868 114.38764 -7.35319 11.83823 1.39646 -15.76308 -24.16681 -9.59662 378.98022 18.62996 -376.07239 45.39273 0.16460 -0.31119 -63.91042 3.17947 8.68310 -3.40411 9.61384 -15.45736 -363.05667 32.17734 372.19894 -1.75187 -0.10777 0.15492 15.97804 -30.84594 -20.20100 
108.42253 94.11134 -104.07043 6.27803 -3.71103 -55.37970 -11.86857 5.85348 14.00046 -0.00040 0.00133 0.00078 -6.45935 22.23144 8.28919 -4.08433 8.38300 2.07880 -105.97102 -65.30141 -81.99149 -37.56889 57.85387 -106.47131 7.95950 9.15555 0.26671 19.15429 3.25678 -6.25727 59.04931 -0.75664 65.10483 26.71603 48.14259 114.16340 -7.42969 11.62438 1.59231 -17.52030 -23.93876 -16.05643 379.82501 16.67044 -375.43488 50.12317 0.12786 -0.31882 -73.85786 -1.36958 9.34223 -2.92174 13.22445 -14.52099 -363.48553 21.88268 370.51215 -4.60339 -0.09093 0.12154 14.26972 -29.82640 -24.90798 
109.84583 93.83721 -104.51505 7.70992 -3.97278 -57.45789 -13.78437 4.81314 14.53428 -0.00126 -0.00081 -0.00101 -6.70569 22.04478 9.28342 -1.85640 8.21846 0.66090 -106.77034 -65.76729 -82.52140 -37.15234 56.32232 -106.45531 7.57206 8.77861 0.13274 20.58407 1.39958 -9.02778 59.05759 1.68719 65.11527 26.36614 47.61191 113.64757 -6.63592 10.32853 2.24546 -18.71069 -23.89736 -22.21540 380.61035 15.29796 -374.66666 54.60273 0.08895 -0.29418 -80.94840 -8.55690 8.06118 -2.86426 16.59759 -13.42509 -363.80603 11.83485 368.84082 -6.61002 -0.07475 0.08750 9.27349 -29.47746 -26.04287 
111.14687 92.95266 -104.92767 8.32564 -4.40955 -59.73581 -15.47890 4.43374 14.86661 -0.00708 0.01435 -0.03029 -7.06124 21.98653 10.37601 -0.10551 8.96917 -2.73121 -110.05375 -67.52198 -86.30970 -36.96465 55.02040 -104.49200 7.92966 9.35459 -0.49876 21.65371 0.46002 -10.63527 59.65795 3.43183 65.28779 25.63034 46.21202 112.20451 -5.07299 11.31760 -1.95030 -18.89009 -23.34284 -27.75953 380.65942 14.09345 -372.73801 59.27401 0.03698 -0.27861 -83.89752 -7.28161 11.07909 -3.16118 20.37761 -11.84851 -363.43008 1.73587 366.02454 -6.47560 -0.00428 -0.02342 -0.21002 -28.85249 -27.74315 
112.39043 92.12533 -105.24413 8.15624 -4.97011 -62.12267 -16.95484 4.69239 14.96650 -0.00541 0.01621 -0.03072 -7.55456 22.09135 11.49918 1.06765 10.26247 -7.20358 -115.52020 -69.96339 -92.90318 -37.07687 53.99570 -100.91634 8.96056 10.72587 -2.14288 22.48810 0.26907 -11.24079 60.66612 4.62419 65.46341 24.35761 44.07519 110.13234 -2.21867 13.72465 -7.97249 -18.06952 -22.26266 -32.65489 380.18900 12.94089 -369.83438 64.02723 -0.00509 -0.24193 -86.60262 -0.40256 16.57253 -3.86677 24.42395 -9.84036 -362.57227 -8.17771 362.28900 -5.38310 0.04399 -0.07663 -5.83209 -26.33390 -25.39393 
113.61888 91.26142 -105.49043 7.22551 -5.57885 -64.54659 -18.20345 5.59505 14.80846 -0.00324 0.01723 -0.02883 -8.22530 22.31317 12.66538 1.86203 11.01202 -9.12154 -118.45163 -71.22386 -96.87852 -37.49237 52.89182 -97.69001 10.03008 12.04240 -3.58090 23.11280 0.64942 -10.90579 61.97188 5.39441 65.57737 22.45281 41.31152 107.65645 2.15494 17.30324 -14.21639 -16.38424 -20.64978 -36.93638 379.32922 11.75139 -366.13510 68.87875 -0.03665 -0.20035 -91.20099 4.63013 21.15489 -4.99550 28.59468 -7.41245 -361.34488 -17.59525 357.79016 -4.28631 0.06042 -0.07875 -8.73574 -22.97238 -20.40899 
114.84068 90.37578 -105.65712 6.01733 -6.09704 -66.59135 -19.32279 7.14852 12.99562 -0.00433 0.06307 -0.08155 -9.46831 22.66063 13.91510 1.44632 10.02991 -5.22898 -114.74033 -70.14331 -93.76163 -37.56287 52.37841 -95.58670 11.11435 13.20605 -4.70686 22.97274 2.13058 -7.23648 64.05711 4.69853 65.60165 18.97408 36.41781 103.66632 5.87671 10.05627 -1.09111 -13.52954 -19.23550 -39.99821 376.85226 10.67431 -360.29193 74.52457 -0.08856 -0.06432 -97.44723 4.67315 23.02070 -7.24732 31.18335 -4.30266 -358.04263 -24.37061 351.01285 -5.90296 -0.05634 0.00351 -5.04292 -17.47927 -11.15602 
116.05933 89.50693 -105.74594 4.56617 -6.51314 -68.28333 -20.19140 9.33480 9.86677 0.00173 0.07019 -0.06933 -11.25820 22.27715 16.32472 0.89190 8.73251 -0.35797 -113.70850 -69.58157 -92.84783 -37.53873 52.42663 -94.06416 11.63788 13.41283 -5.40724 22.47861 3.50566 -2.72551 66.09606 4.67159 65.63186 13.90039 30.54733 99.35467 10.95060 25.18624 -12.11209 -10.05764 -17.98174 -41.86966 373.14584 9.12451 -353.25580 81.03180 -0.10735 0.09164 -102.31772 7.76493 21.94473 -10.29717 32.17158 -0.65292 -352.78241 -28.12105 343.02954 -11.02631 -0.35675 0.03923 -2.00329 -16.31104 -1.49145 
117.30475 88.81121 -105.78835 2.92557 -6.79964 -69.67655 -20.78659 11.45613 7.11087 0.00249 -0.00585 0.02387 -12.80275 22.10805 18.24713 0.62352 7.80359 3.65688 -114.67655 -69.47935 -93.63125 -37.49899 52.89672 -92.85402 12.32774 13.59347 -6.11962 21.91829 4.78785 0.81799 68.04015 5.19151 65.65094 7.36138 24.36945 95.44583 9.64023 15.44460 6.08112 -6.45679 -17.00208 -42.62719 368.88174 6.86906 -345.82010 87.72975 -0.10312 0.22481 -106.67691 10.18329 19.01632 -14.04187 32.09331 3.45883 -346.31525 -29.11256 336.42117 -14.97385 -0.27559 0.01525 -0.08483 -16.81979 6.49812 
118.59427 88.33936 -105.78767 1.16930 -6.95111 -70.81745 -21.15960 13.48595 4.75034 0.00102 -0.00588 0.03032 -14.15088 21.95454 19.85124 0.51148 7.06395 7.02899 -116.96733 -69.63350 -95.59639 -37.40586 53.65561 -91.83574 12.68640 13.30621 -6.52995 21.41262 5.89002 4.05013 69.83789 5.78825 65.73229 2.83229 21.57638 93.43370 15.93540 16.59095 5.47725 -2.90753 -16.25002 -42.29795 364.17252 4.21470 -338.44885 94.58369 -0.05561 0.34507 -109.65488 13.26358 14.12896 -18.05060 31.06773 7.74154 -340.42004 -28.48023 331.58945 -18.59869 -0.16739 -0.00995 1.42000 -18.67262 11.37900 
